<svg version="1.0" xmlns="http://www.w3.org/2000/svg"
 width="155.000000pt" height="149.000000pt" viewBox="0 0 155.000000 149.000000"
 preserveAspectRatio="xMidYMid meet">
<style>
    svg {
        color: #000; 
    }

    @media (prefers-color-scheme: dark) {
        svg {
            color: #fff;
        }
    }
</style>
<g transform="translate(0.000000,149.000000) scale(0.100000,-0.100000)"
fill="currentColor" stroke="none">
<path d="M540 1412 c0 -4 21 -5 46 -3 98 7 263 -45 345 -110 23 -18 54 -50 70
-72 28 -38 74 -146 66 -154 -3 -2 -30 21 -61 51 -97 95 -263 155 -391 141
-246 -26 -424 -154 -524 -378 -46 -102 -45 -118 1 -32 54 102 105 163 180 220
89 67 225 102 292 76 16 -6 10 -10 -28 -21 -151 -42 -295 -206 -342 -391 -24
-94 -15 -253 19 -337 31 -77 77 -154 124 -207 37 -42 32 -29 -24 56 -48 72
-76 175 -77 280 -1 91 1 100 34 164 41 80 63 97 49 38 -15 -67 -10 -186 11
-254 52 -170 200 -314 384 -374 78 -25 94 -27 203 -23 65 3 129 10 143 16 19
9 6 10 -60 6 -151 -10 -297 36 -384 121 -43 41 -103 141 -92 152 3 3 25 -13
48 -36 24 -23 80 -61 126 -83 77 -39 89 -42 185 -46 120 -5 206 12 300 59 148
75 234 172 301 341 38 96 32 96 -17 -2 -80 -163 -231 -279 -374 -288 -107 -7
-181 18 -95 32 66 10 163 66 227 130 216 218 218 586 4 808 -31 32 -41 39 -25
18 89 -118 130 -232 130 -355 0 -70 -4 -90 -31 -145 -50 -102 -84 -135 -63
-59 6 18 10 72 10 119 -1 194 -124 387 -310 484 -100 53 -159 66 -287 66 -62
0 -113 -3 -113 -8z m311 -575 c49 -33 65 -87 43 -145 -41 -109 -191 -108 -233
2 -42 111 90 211 190 143z"/>
</g>
</svg>
